<svg xmlns="http://www.w3.org/2000/svg" xml:space="preserve" width="655.359" height="655.359" style="shape-rendering:geometricPrecision;text-rendering:geometricPrecision;image-rendering:optimizeQuality;fill-rule:evenodd;clip-rule:evenodd" viewBox="0 0 6.827 6.827"><defs><clipPath id="id0"><path d="M3.413 0a3.413 3.413 0 1 1 0 6.827 3.413 3.413 0 0 1 0-6.827z"/></clipPath><style>.fil1{fill:#1e88e5}.fil5{fill:#212121}.fil9{fill:#424242}.fil17{fill:#616161}.fil13{fill:#757575}.fil3{fill:#dbc0b2}.fil6{fill:#eccebe}.fil10{fill:#fff}.fil15,.fil19,.fil20{fill:#424242;fill-rule:nonzero}.fil19,.fil20{fill:#ff6d00}.fil19{fill:#ffab40}</style></defs><g id="Layer_x0020_1"><path d="M3.413 0a3.413 3.413 0 1 1 0 6.827 3.413 3.413 0 0 1 0-6.827z" style="fill:#64b5f6"/><g style="clip-path:url(#id0)"><g id="_435558424"><path id="_4302301761" class="fil1" d="m3.238 3.868 3.786 3.786-3.786-3.786z"/><path id="_430230056" class="fil1" d="m3.238 3.868 3.787 3.786.112-.05-3.786-3.787z"/><path id="_430231568" class="fil1" d="m3.351 3.817 3.786 3.787-3.786-3.787z"/><path id="_430231592" class="fil1" d="m2.81 5.03 3.786 3.787-.103.148L2.706 5.18z"/><path id="_430231520" class="fil1" d="m2.888 5.222 3.786 3.786H6.64L2.853 5.222z"/><path id="_430231616" class="fil1" d="m2.706 5.179 3.787 3.786L6.47 9 2.683 5.213z"/><path id="_430231304" class="fil1" d="m2.678 5.222 3.786 3.786-.001.002-3.786-3.787z"/><path id="_430231328" class="fil1" d="M2.654 5.222 6.44 9.008H5.368L1.582 5.222z"/><path id="_430231208" class="fil1" d="m2.67 5.257 3.787 3.787-.001.002-.001.002-.002.002-.001.001-.002.001h-.007L2.657 5.267h.006l.002-.001.002-.002.002-.001V5.26z"/><path id="_430231472" class="fil1" d="m2.657 5.266 3.786 3.787-.002-.001-.002-.001-.002-.002-3.786-3.786.001.002h.002z"/><path id="_430231136" class="fil1" d="M2.677 5.224 6.463 9.01l-.006.034L2.67 5.257z"/><path id="_430232024" class="fil1" d="m1.582 5.222 3.786 3.786h-.035L1.547 5.222z"/><path id="_430232240" class="fil1" d="m2.888 3.527 3.786 3.787v.035L2.888 3.563z"/><path id="_430232096" class="fil1" d="m2.888 3.563 3.786 3.786v.461L2.888 4.024z"/><path id="_430232144" class="fil1" d="M3.012 4.05 6.8 7.834l-.007.035-3.787-3.786z"/><path id="_430231928" class="fil1" d="M3.005 4.084 6.792 7.87l-.043.211-3.787-3.786z"/><path id="_430232192" class="fil1" d="M2.962 4.295 6.75 8.08l-.007.031-3.786-3.786z"/><path id="_430224656" class="fil1" d="m2.956 4.326 3.786 3.786-.001.008-3.786-3.786z"/><path id="_430224704" class="fil1" d="M2.954 4.334 6.742 8.12l-.067.327L2.888 4.66z"/><path id="_430224728" class="fil1" d="m2.888 4.66 3.786 3.787-.047.231-3.786-3.786z"/><path id="_430224608" class="fil1" d="m2.84 4.892 3.787 3.786-.025.126-3.787-3.787z"/><path id="_430224752" class="fil1" d="m2.815 5.017 3.787 3.787-3.787-3.786z"/><path id="_430224392" class="fil1" d="m2.815 5.018 3.787 3.786v.002L2.814 5.02z"/><path id="_430224416" class="fil1" d="M2.815 5.02 6.6 8.806 2.814 5.02z"/><path id="_430224296" class="fil1" d="m2.814 5.02 3.787 3.786-.002.004-3.786-3.786z"/><path id="_430224512" class="fil1" d="M2.813 5.024 6.599 8.81l-.003.007L2.81 5.031z"/><path id="_430224992" class="fil1" d="M2.888 5.213 6.674 9v.008L2.888 5.222z"/><path id="_430225280" class="fil1" d="m2.853 5.222 3.786 3.786h-.175L2.678 5.222z"/><path id="_430225616" class="fil1" d="m4.052 3.703 3.786 3.786.023.112-3.786-3.786z"/><path id="_430225352" class="fil1" d="M4.227 3.884 8.014 7.67l-.006-.002-.006-.003-.005-.003-.006-.002-.006-.003-.006-.003-.005-.002-.006-.003-.006-.002-.006-.003-.006-.003-.006-.003-.006-.002-.006-.003-.006-.003-.006-.002L4.134 3.84l.006.003.006.003.006.003.006.002.006.003.006.003.006.002.005.003.006.003.006.002.006.003.006.002.005.003.006.003.006.002z"/><path id="_430225328" class="fil1" d="M4.513 1.86 8.3 5.646l.007.01.008.009.007.01.007.009.006.01.006.01.006.01.006.01.005.01.005.01.005.01L4.58 1.966l-.004-.01-.005-.01-.005-.01-.006-.01-.006-.01-.006-.01-.006-.01-.007-.009-.007-.01-.008-.009z"/><path id="_430225016" class="fil1" d="m4.581 1.967 3.787 3.786.003.01.004.008.003.009.003.009.003.009.002.009.002.009.002.009.002.01.001.008.001.01.001.009.001.01v.047l-.002.01v.01l-.002.01-.002.01-.002.01-.002.01-.003.01-.002.01-.004.01-.003.01-.004.011-.003.01-.005.011-.004.011-3.786-3.786.004-.011.004-.01.004-.011.004-.01.003-.011.003-.01.003-.01.003-.011.002-.01.002-.01.002-.01.001-.01.001-.01.001-.01v-.01l.001-.009v-.037l-.002-.01-.001-.009-.001-.01-.002-.008-.002-.01-.002-.008-.003-.01-.002-.008-.003-.01-.003-.008-.004-.009z"/><path id="_430225496" class="fil1" d="M4.625 2.752 8.41 6.538l.002.005.002.004.001.004.002.005.001.004.002.005.001.005.001.004.001.006v.005l.002.005V6.6l.001.005V6.641l-.001.006v.006l-.002.006v.006l-.002.006v.006l-.002.006-.002.007-.001.006-.002.006-.002.007-.002.006-3.786-3.786.002-.007.002-.006.002-.006.001-.007.002-.006v-.006l.002-.006.001-.006.001-.007v-.006l.002-.006v-.017l.001-.006v-.023L4.64 2.81v-.005l-.001-.006-.001-.005-.001-.005-.001-.005-.002-.004v-.005l-.002-.005-.002-.004-.001-.005-.002-.004z"/><path id="_430225592" class="fil1" d="m4.63 2.758 3.787 3.786-.002-.001v-.001l-.002-.001V6.54h-.001v-.002L4.624 2.752l.001.002h.001v.001h.002v.002h.001z"/><path id="_430225712" class="fil1" d="m4.572 2.276 3.786 3.786.003.014.003.013.003.014.003.014.003.013.003.014.002.015.002.014.003.014.002.015.002.014.002.015.002.015.002.015.001.015.002.015.002.015.001.015.002.016v.015l.002.016.002.015.001.016.001.016.001.016.002.016v.016l.002.016.001.016.002.016v.017l.002.016L4.63 2.758l-.002-.016v-.017l-.002-.016-.001-.016-.001-.016-.002-.017v-.016L4.62 2.63l-.001-.016-.002-.016v-.016l-.002-.015-.002-.016-.001-.015-.002-.015-.001-.015-.002-.016-.002-.015-.001-.014-.002-.015L4.6 2.43l-.002-.015-.003-.014-.002-.014-.002-.015-.003-.014-.002-.014-.003-.014-.003-.014-.003-.013-.003-.014z"/><path id="_430225208" class="fil1" d="M4.625 2.929 8.41 6.715l-.003.01-.004.009-.003.009-.004.008-.004.01-.005.007-.004.008-.005.008-.005.008-.005.007-.005.007-.005.006-.006.007-.005.006-.006.005-.005.005-.006.005-.006.005-.006.004-.006.004-.006.003-.005.003-.006.003-.006.002-.006.002h-.006l-.006.002H8.254l-.005-.002-.006-.001-3.786-3.787.005.002.006.001H4.491l.006-.002.006-.001.006-.002.006-.003.006-.003.006-.003.006-.004.006-.004.006-.005.005-.005.006-.005.006-.006.005-.006.005-.006.006-.006.005-.007.005-.008.005-.007.004-.008.005-.008.004-.008.004-.009.004-.009.004-.009.004-.009z"/><path id="_430226168" class="fil1" d="m4.457 3.078 3.786 3.787-.002-.001-.003-.001-.002-.001-.003-.001-.002-.002H8.23l-.002-.002-.003-.002L4.438 3.07l.002.001.003.002.002.001.002.001.002.002h.003l.002.002z"/><path id="_430226240" class="fil1" d="m4.438 3.069 3.786 3.786-.002.01-.003.01-.002.01-.003.01-.003.01-.002.01-.003.009-.003.009-.002.008-.003.009-.003.008-.002.008-.003.008-.002.007-.003.008-.002.007-.003.007-.002.006-.002.006-.003.006-.002.006-.002.005-.002.006-.003.004-.002.005-.002.004-.001.004-.002.004-.002.003-.002.003-.001.003-.002.002-3.786-3.786.001-.003.002-.002.002-.003.001-.003.002-.004.002-.004.002-.004.002-.005.002-.005.002-.005.003-.005.002-.006.002-.006.003-.006.002-.007.002-.006.003-.007.002-.008.003-.007.003-.008.002-.008.003-.008.002-.009.003-.009.003-.009.002-.009.003-.01.003-.009.002-.01.003-.01.003-.01z"/><path id="_430225928" class="fil1" d="M4.364 3.284 8.15 7.07l-.004.006-.005.007-.005.006-.006.007-.006.008-.007.007-.007.008-.007.008-.008.008-.008.009-.009.009-.009.008-.01.01-.009.008-.01.01-.01.009-.01.01-.011.009-.011.01-.011.01-.012.009-.012.01-.012.01-.012.01-.012.01-.012.009-.013.01-.012.01-.013.009-.013.01-.013.008-.013.01-3.786-3.787.013-.009.013-.01.013-.009.012-.01.013-.009.013-.01.012-.01.012-.009.012-.01.012-.01.012-.01.011-.009.012-.01.01-.01.011-.009.01-.01.011-.009.01-.009.01-.009.009-.009.009-.009.008-.008.009-.009.007-.008.008-.008.007-.008.007-.008.006-.007.005-.007.006-.007.005-.006z"/><path id="_430225952" class="fil1" d="m4.052 3.565 3.786 3.787v.137L4.052 3.703z"/><path id="_430225832" class="fil1" d="m4.227 3.883 3.786 3.786v.001L4.228 3.884z"/><path id="_430226000" class="fil1" d="M4.134 3.841 7.92 7.628 7.861 7.6 4.075 3.815z"/><path id="_430225760" class="fil1" d="M4.075 3.815 7.86 7.601l-.023-.01-3.786-3.786z"/><path id="_430226120" class="fil1" d="M4.052 3.805 7.838 7.59h-.002l-.002-.001-.002-.001-.002-.001-.002-.001h-.002l-.001-.002h-.002L4.036 3.797l.002.001h.002l.002.002h.002l.002.001.002.001.002.001z"/><path id="_430225808" class="fil1" d="m4.036 3.798 3.787 3.786h-.06L3.976 3.798z"/><path id="_430226888" class="fil1" d="m3.976 3.798 3.787 3.786h-.08L3.896 3.797z"/><path id="_430226912" class="fil1" d="m3.38 3.565 3.787 3.787-.013-.01-.013-.009-.013-.01-.013-.009-.012-.01-.013-.01-.012-.009-.013-.01-.012-.01-.012-.01-.011-.009-.012-.01-.011-.01-.011-.009-.01-.01-.011-.009-.01-.01-.01-.009-.01-.009-.01-.009-.008-.008L3.14 3.366l.008.01.01.008.01.01.01.008.01.01.01.01.01.009.012.01.011.01.011.009.012.01.012.01.012.009.012.01.013.01.012.01.013.009.013.01.013.009.013.01z"/><path id="_430226624" class="fil1" d="M3.53 3.795 7.318 7.58H7.24L3.454 3.794z"/><path id="_430227200" class="fil1" d="M3.454 3.794 7.24 7.581h-.05L3.403 3.793z"/><path id="_430226960" class="fil1" d="M3.403 3.794 7.19 7.58l-.003.002h-.003l-.003.002-.003.001-.003.002h-.003l-.002.002-.003.001L3.38 3.804l.002-.001.003-.001.003-.002h.003l.003-.002.003-.001.003-.002z"/><path id="_430226816" class="fil1" d="M3.38 3.804 7.168 7.59 3.38 3.804z"/><path id="_430227056" class="fil1" d="M3.38 3.804 7.167 7.59l-.004.002-.004.002-.003.001-.004.002-.004.002-.003.001-.004.002-.004.001-3.786-3.786.004-.002.003-.001.004-.002.004-.001.003-.002.004-.002.004-.001z"/><path id="_430227104" class="fil1" d="M2.994 3.067 6.78 6.853l-.003.002-.002.002-.003.001-.002.002-.003.001-.003.002h-.002l-.003.002-3.787-3.786.003-.002h.003l.003-.002.003-.001.002-.002.003-.001.002-.002z"/><path id="_430227128" class="fil1" d="M2.972 3.079 6.76 6.865l-.006.001-.006.001-.005.001H6.73l-.006-.001-.006-.001-.006-.002-.006-.002-.006-.003-.006-.003-.006-.003-.005-.004-.006-.004-.006-.005-.006-.005-.006-.005-.005-.005-3.786-3.787.005.006.006.005.006.005.005.005.006.004.006.004.006.003.006.003.006.003.006.002.006.001.006.002H2.967z"/><path id="_430226576" class="fil1" d="m3.896 3.797 3.787 3.787-.366-.003-3.786-3.786z"/><path id="_435558064" class="fil1" d="m3.238 3.868.113-.05-.113.05zm-.35 1.345v.009h-.21l-.001.001-.007.034a.012.012 0 0 1-.022-.004l.006-.031H1.547V3.527h1.341v.496l.019.005h.002l.069.014.034.007-.007.035-.043.21-.006.032-.001.008-.067.326-.047.232-.026.125v.003l-.002.004-.003.007-.104.148-.023.034H2.888zm1.246-1.372.093.042-.093-.042zm-.367-2.276a.85.85 0 0 1 .514.102c.15.099.253.19.3.3.041.094.04.193-.01.309.037.142.047.306.06.482a.228.228 0 0 0-.006-.006.247.247 0 0 1 0 .177c-.034.102-.109.169-.168.15a.067.067 0 0 1-.019-.01.905.905 0 0 1-.074.215 1.482 1.482 0 0 1-.312.281v.138l.023.112.059.026-.06-.026-.022-.01-.016-.007h-.14l-.365-.003h-.077l-.05-.001a12.582 12.582 0 0 0-.024.01l-.029.013.03-.114v-.138a1.482 1.482 0 0 1-.313-.281.912.912 0 0 1-.074-.217.068.068 0 0 1-.022.012c-.059.019-.134-.048-.168-.15a.252.252 0 0 1-.002-.172l.023-.256c.007-.102.026-.2.059-.288a1.194 1.194 0 0 1-.062-.43.082.082 0 0 1 .143-.056.21.21 0 0 0 .123.074.189.189 0 0 0 .13-.035c.143-.094.34-.18.549-.2z"/></g></g><path d="M3.413 0a3.413 3.413 0 1 1 0 6.827 3.413 3.413 0 0 1 0-6.827z" style="fill:none"/><path class="fil3" d="M2.85 2.708c.06-.02.135.048.168.15.034.102.014.201-.046.22-.059.02-.134-.047-.168-.15-.033-.102-.013-.2.047-.22zM4.579 2.708c-.06-.02-.135.048-.168.15-.034.102-.013.201.046.22.059.02.134-.047.168-.15.034-.102.013-.2-.046-.22z"/><path d="M3.403 3.794c-.69.303-.898.465-.98.537-.126.112-.196.529-.27.882H5.28c-.074-.353-.144-.77-.27-.882-.083-.072-.282-.23-.974-.533l-.633-.004z" style="fill:#fdc"/><path class="fil5" d="M3.403 3.794c-.69.303-.898.465-.98.537-.126.112-.196.529-.27.882H5.28c-.075-.353-.144-.77-.27-.882-.083-.072-.282-.23-.974-.533l-.633-.004z"/><path class="fil6" d="M4.052 3.19v.766c-.185.226-.487.218-.671 0V3.19c0-.414.67-.414.67 0z"/><path d="M4.052 3.19v.513c-.127.093-.25.144-.336.144-.086 0-.208-.051-.335-.144V3.19c0-.414.67-.414.67 0z" style="fill:#dfc4b6"/><path class="fil6" d="M3.716 1.814c-1.126 0-.721 1.361-.648 1.47.081.12.466.436.648.436s.567-.317.648-.436c.073-.109.479-1.47-.648-1.47z"/><path d="M3.718 4.123s-.469.112-.469.14c0 .028.179.95.179.95h.636l.072-.946-.418-.144z" style="fill:#c7b7b7"/><path class="fil9" d="M3.38 3.804v.152l.146 1.257h-.25L3 4.653l.263-.175-.322-.15.296-.46zM4.052 3.805v.151l-.147 1.257h.25l.276-.56-.263-.175.321-.15-.262-.445z"/><path class="fil10" d="m3.38 3.703-.029.114.082.594.285-.288z"/><path d="m3.572 4.278.081.126h.126l.081-.126-.142-.155-.146.155z" style="fill:#224f10"/><path style="fill:#33691e" d="m3.653 4.404-.116.81h.358l-.116-.81z"/><path class="fil10" d="m4.052 3.703.023.112-.077.602-.28-.294z"/><path class="fil13" d="M2.79 5.213h.053l-.002-.41s-.024.179-.051.41zM4.643 5.213h-.054l.002-.41s.024.179.052.41z"/><path d="M3.375 3.24c.227.08.49.067.682 0-.063.289-.562.296-.682 0z" style="fill:#e4b7a0"/><path class="fil15" d="M3.065 2.409a1.08 1.08 0 0 0-.02-.013c-.096-.06-.22-.137-.223-.614a.082.082 0 0 1 .143-.055.21.21 0 0 0 .123.074.189.189 0 0 0 .13-.035c.143-.094.34-.18.549-.2a.85.85 0 0 1 .514.1c.15.1.253.192.3.301.051.118.036.243-.056.4a.082.082 0 0 1-.058.04.875.875 0 0 1-.14.011.828.828 0 0 1-.447-.127.672.672 0 0 1-.185-.175.658.658 0 0 1-.16.164.81.81 0 0 1-.411.148.082.082 0 0 1-.06-.02z"/><path class="fil15" d="M3.728 2.133c.174.014.464-.067.643.256.07.128.088.336.101.363.065-.056.115-.04.159.006-.041-.548-.052-.982-.913-1.011-.637-.022-.862.33-.893.754l-.023.263c.07-.059.123-.042.16.012.102-.297-.057-.71.766-.643z"/><path style="fill:#e1f5fe" d="M1.582 3.527h1.306v1.695H1.547V3.527z"/><path class="fil17" d="M1.794 4.834h.847v.07h-.847zM1.794 4.622h.847v.07h-.847zM1.794 4.41h.847v.07h-.847zM1.794 4.198h.847v.07h-.847zM1.794 3.986h.847v.07h-.847zM1.794 3.775h.847v.07h-.847z"/><path style="fill:#ff9100;fill-rule:nonzero" d="m2.956 4.326-.141.694-.208-.042.142-.694z"/><path class="fil19" d="m2.815 5.017-.005.014-.104.148-.045.068-.018-.081-.035-.177v-.013zM2.84 4.014l.138.028.034.007-.007.035-.049.242-.207-.042.049-.242.007-.035z"/><path class="fil20" d="m2.956 4.326-.141.694-.104-.021.141-.694z"/><path class="fil20" d="m2.815 5.017-.005.014-.104.148-.045.068.05-.25zM2.909 4.028l.069.014.034.007-.007.035-.049.242-.104-.021z"/><path class="fil5" d="m2.655 5.219.022.005-.007.033a.012.012 0 0 1-.013.01.012.012 0 0 1-.01-.014l.008-.034z"/><path transform="rotate(11.498 -20.649 16.18) scale(.72291)" style="fill:#e65100" d="M0 0h.038v.586H0z"/></g></svg>